<?xml version="1.0" encoding="iso-8859-1"?>
<!-- Generator: Adobe Illustrator 19.0.0, SVG Export Plug-In . SVG Version: 6.00 Build 0)  -->
<svg version="1.1" id="Layer_1" xmlns="http://www.w3.org/2000/svg" xmlns:xlink="http://www.w3.org/1999/xlink" x="0px" y="0px"
	 viewBox="0 0 475.279 475.279" style="enable-background:new 0 0 475.279 475.279; " xml:space="preserve">
<g fill="#115571">
	<path stroke="#115571" d="M361.531,395.98c-33.02,0-50.146,11.539-65.257,21.718c-13.766,9.274-24.639,16.599-48.496,16.599
		c-23.856,0-34.729-7.325-48.495-16.599c-15.111-10.18-32.237-21.718-65.257-21.718c-2.381,0-4.67,0.067-6.891,0.182V236.423
		c23.946,6.592,41.592,28.547,41.592,54.559h30c0-28.366-13.71-53.59-34.852-69.394c14.009,2.427,27.128,10.074,36.125,22.457
		l24.271-17.634c-16.673-22.948-42.59-35.296-68.983-35.655c12.76-6.271,27.868-7.796,42.424-3.066l9.271-28.531
		c-22.013-7.154-45.479-5.311-66.078,5.185c-11.382,5.799-21.13,13.869-28.791,23.635c-21.817-27.68-59.396-40.329-94.824-28.82
		l9.271,28.532c14.556-4.729,29.664-3.205,42.424,3.066C42.59,191.115,16.672,203.463,0,226.411l24.271,17.634
		c8.997-12.385,22.116-20.032,36.126-22.458c-21.143,15.804-34.854,41.028-34.854,69.395h30c0-26.012,17.646-47.967,41.592-54.559
		v165.655c-11.486,4.257-20.22,10.135-28.364,15.621c-13.765,9.273-24.637,16.599-48.492,16.599v30
		c33.018,0,50.145-11.539,65.255-21.719c13.765-9.273,24.637-16.599,48.492-16.599c23.856,0,34.729,7.325,48.495,16.599
		c15.111,10.18,32.237,21.718,65.257,21.718s50.146-11.539,65.257-21.718c13.766-9.274,24.639-16.599,48.496-16.599
		c23.855,0,34.728,7.325,48.493,16.599c15.11,10.18,32.237,21.719,65.255,21.719v-30c-23.855,0-34.728-7.325-48.493-16.599
		C411.676,407.519,394.55,395.98,361.531,395.98z"/>
	<path d="M438.776,105.982c-1.944-9.575-5.72-18.48-10.933-26.351l25.824-25.824l-21.213-21.213l-25.824,25.824
		c-7.871-5.213-16.777-8.989-26.351-10.933V10.982h-30v36.503c-9.575,1.944-18.48,5.72-26.351,10.933l-25.824-25.824l-21.213,21.213
		l25.824,25.824c-5.213,7.871-8.989,16.777-10.933,26.351h-36.503v30h36.503c1.944,9.575,5.72,18.48,10.933,26.351l-25.824,25.824
		l21.213,21.213l25.824-25.824c7.871,5.213,16.777,8.989,26.351,10.933v36.503h30v-36.503c9.575-1.944,18.48-5.72,26.351-10.933
		l25.824,25.824l21.213-21.213l-25.824-25.824c5.213-7.871,8.989-16.777,10.933-26.351h36.503v-30H438.776z"/>
</g>
<g>
</g>
<g>
</g>
<g>
</g>
<g>
</g>
<g>
</g>
<g>
</g>
<g>
</g>
<g>
</g>
<g>
</g>
<g>
</g>
<g>
</g>
<g>
</g>
<g>
</g>
<g>
</g>
<g>
</g>
</svg>
